<svg width="160" height="52" viewBox="0 0 160 52" fill="none" xmlns="http://www.w3.org/2000/svg">
<path d="M0.674805 39.9111C7.54684 46.7831 13.8227 53.1293 24.4017 51.1333C29.1618 50.2351 32.8524 47.2796 35.8643 43.5984C37.6991 41.356 35.9537 42.6042 38.1889 43.919C40.3375 45.1829 43.1966 46.3013 45.6437 45.2817C48.4804 44.0997 50.7737 41.67 52.7778 39.4302C52.7994 39.406 56.1036 34.632 56.6254 35.1016C59.5927 37.7722 56.5836 43.283 63.038 42.4762C76.1529 40.8368 85.8512 20.5816 92.1356 10.5731C92.6218 9.79875 98.0248 -0.17218 98.7887 1.11443C103.494 9.03871 106.203 21.3518 108.007 30.3723C109.799 39.3344 108.009 51.303 95.3419 48.4881C91.9713 47.739 100.63 41.913 101.995 41.6746C107.466 40.7193 114.879 40.5775 120.271 42.0754C132.773 45.5482 146.222 42.7324 159.388 39.9111" stroke="#FADB83" stroke-opacity="0.7" stroke-linecap="round"/>
</svg>
