<svg width="132" height="59" viewBox="0 0 132 59" fill="none" xmlns="http://www.w3.org/2000/svg">
<path d="M46.0089 17.852C45.3549 11.9664 32.1913 -7.77985 30.4581 5.50764C29.233 14.9004 30.653 23.8141 32.2216 33.002C33.3561 39.6466 36.9115 49.6896 30.1375 53.9233C23.1337 58.3007 11.9109 59.8798 4.3265 56.0876C1.35842 54.6036 -0.660514 48.349 2.88365 46.3884C12.431 41.1069 29.2104 40.7587 39.5962 43.1821C43.242 44.0328 43.3691 49.5948 46.3295 49.5948C52.3895 49.5948 61.9431 44.5289 64.5255 38.9337C66.1323 35.4521 65.9683 38.2123 67.331 40.9377C69.5893 45.4542 80.9567 39.0839 83.523 37.9718C87.2603 36.3523 92.6329 32.6012 96.9095 32.6012C99.2113 32.6012 98.9374 36.011 99.715 37.4107C102.682 42.7513 111.71 24.5699 112.22 23.2226C115.871 13.5738 110.995 33.4408 110.937 37.0901C110.753 48.7246 122.519 51.6379 131.137 56.809" stroke="#FADB83" stroke-opacity="0.7" stroke-linecap="round"/>
</svg>
